<?xml version="1.0" encoding="UTF-8" standalone="no"?>
<!-- Created with Inkscape (http://www.inkscape.org/) -->

<svg
   xmlns:dc="http://purl.org/dc/elements/1.1/"
   xmlns:cc="http://creativecommons.org/ns#"
   xmlns:rdf="http://www.w3.org/1999/02/22-rdf-syntax-ns#"
   xmlns:svg="http://www.w3.org/2000/svg"
   xmlns="http://www.w3.org/2000/svg"
   xmlns:sodipodi="http://sodipodi.sourceforge.net/DTD/sodipodi-0.dtd"
   xmlns:inkscape="http://www.inkscape.org/namespaces/inkscape"
   width="210mm"
   height="297mm"
   viewBox="0 0 744.09448819 1052.3622047"
   id="svg2"
   version="1.1"
   inkscape:version="0.91 r13725"
   sodipodi:docname="icons.svg">
  <defs
     id="defs4">
    <marker
       inkscape:stockid="TriangleOutL"
       orient="auto"
       refY="0.0"
       refX="0.0"
       id="TriangleOutL"
       style="overflow:visible"
       inkscape:isstock="true">
      <path
         id="path4570"
         d="M 5.77,0.0 L -2.88,5.0 L -2.88,-5.0 L 5.77,0.0 z "
         style="fill-rule:evenodd;stroke:#ee3987;stroke-width:1pt;stroke-opacity:1;fill:#ee3987;fill-opacity:1"
         transform="scale(0.8)" />
    </marker>
    <marker
       inkscape:stockid="Arrow1Lend"
       orient="auto"
       refY="0.0"
       refX="0.0"
       id="Arrow1Lend"
       style="overflow:visible;"
       inkscape:isstock="true">
      <path
         id="path4431"
         d="M 0.0,0.0 L 5.0,-5.0 L -12.5,0.0 L 5.0,5.0 L 0.0,0.0 z "
         style="fill-rule:evenodd;stroke:#000000;stroke-width:1pt;stroke-opacity:1;fill:#000000;fill-opacity:1"
         transform="scale(0.8) rotate(180) translate(12.5,0)" />
    </marker>
    <marker
       inkscape:stockid="Arrow1Lstart"
       orient="auto"
       refY="0.0"
       refX="0.0"
       id="Arrow1Lstart"
       style="overflow:visible"
       inkscape:isstock="true">
      <path
         id="path4428"
         d="M 0.0,0.0 L 5.0,-5.0 L -12.5,0.0 L 5.0,5.0 L 0.0,0.0 z "
         style="fill-rule:evenodd;stroke:#000000;stroke-width:1pt;stroke-opacity:1;fill:#000000;fill-opacity:1"
         transform="scale(0.8) translate(12.5,0)" />
    </marker>
    <inkscape:perspective
       sodipodi:type="inkscape:persp3d"
       inkscape:vp_x="-83.842663 : 663.56185 : 1"
       inkscape:vp_y="0 : 1000 : 0"
       inkscape:vp_z="778.43968 : 565.57705 : 1"
       inkscape:persp3d-origin="406.39243 : 390.18335 : 1"
       id="perspective4136" />
  </defs>
  <sodipodi:namedview
     id="base"
     pagecolor="#ffffff"
     bordercolor="#666666"
     borderopacity="1.0"
     inkscape:pageopacity="0.0"
     inkscape:pageshadow="2"
     inkscape:zoom="1.979899"
     inkscape:cx="302.08925"
     inkscape:cy="697.88591"
     inkscape:document-units="px"
     inkscape:current-layer="layer1"
     showgrid="false"
     inkscape:window-width="2560"
     inkscape:window-height="1416"
     inkscape:window-x="0"
     inkscape:window-y="24"
     inkscape:window-maximized="1" />
  <metadata
     id="metadata7">
    <rdf:RDF>
      <cc:Work
         rdf:about="">
        <dc:format>image/svg+xml</dc:format>
        <dc:type
           rdf:resource="http://purl.org/dc/dcmitype/StillImage" />
        <dc:title></dc:title>
      </cc:Work>
    </rdf:RDF>
  </metadata>
  <g
     inkscape:label="Layer 1"
     inkscape:groupmode="layer"
     id="layer1">
    <rect
       style="fill:none;fill-opacity:1;stroke:#ee398f;stroke-width:1;stroke-linecap:butt;stroke-miterlimit:4;stroke-dasharray:none;stroke-opacity:0.94117647"
       id="rect4160-3"
       width="40.406101"
       height="40.406101"
       x="68.405441"
       y="275.74924"
       inkscape:export-filename="/home/arturo/Documents/ofSite/icons/3d.png"
       inkscape:export-xdpi="85.514633"
       inkscape:export-ydpi="85.514633" />
    <path
       style="fill:none;fill-rule:evenodd;stroke:#ee398f;stroke-width:1px;stroke-linecap:butt;stroke-linejoin:miter;stroke-opacity:0.94117647"
       d="m 84.610451,262.32776 -16.42858,13.39286"
       id="path4181-4"
       inkscape:connector-curvature="0"
       sodipodi:nodetypes="cc"
       inkscape:export-filename="/home/arturo/Documents/ofSite/icons/3d.png"
       inkscape:export-xdpi="85.514633"
       inkscape:export-ydpi="85.514633" />
    <path
       style="fill:none;fill-rule:evenodd;stroke:#ee398f;stroke-width:1px;stroke-linecap:butt;stroke-linejoin:miter;stroke-opacity:0.94117647"
       d="m 125.29647,302.82979 -16.36545,13.39286"
       id="path4181-4-0"
       inkscape:connector-curvature="0"
       sodipodi:nodetypes="cc"
       inkscape:export-filename="/home/arturo/Documents/ofSite/icons/3d.png"
       inkscape:export-xdpi="85.514633"
       inkscape:export-ydpi="85.514633" />
    <path
       style="fill:none;fill-rule:evenodd;stroke:#ee398f;stroke-width:1px;stroke-linecap:butt;stroke-linejoin:miter;stroke-opacity:0.94117647"
       d="m 125.29647,262.38085 -16.42858,13.39286"
       id="path4181-4-01"
       inkscape:connector-curvature="0"
       sodipodi:nodetypes="cc"
       inkscape:export-filename="/home/arturo/Documents/ofSite/icons/3d.png"
       inkscape:export-xdpi="85.514633"
       inkscape:export-ydpi="85.514633" />
    <path
       style="fill:none;fill-rule:evenodd;stroke:#ee398f;stroke-width:1px;stroke-linecap:butt;stroke-linejoin:miter;stroke-opacity:0.94117647"
       d="m 84.315361,262.42785 40.911179,0.12627 -0.0631,40.5955 0,0"
       id="path4282"
       inkscape:connector-curvature="0"
       sodipodi:nodetypes="cccc"
       inkscape:export-filename="/home/arturo/Documents/ofSite/icons/3d.png"
       inkscape:export-xdpi="85.514633"
       inkscape:export-ydpi="85.514633" />
    <rect
       style="fill:none;fill-opacity:1;stroke:#ee398f;stroke-width:1;stroke-linecap:butt;stroke-miterlimit:4;stroke-dasharray:none;stroke-opacity:0.94117647"
       id="rect4284"
       width="67.85714"
       height="45"
       x="153.77013"
       y="260.93362"
       inkscape:export-filename="/home/arturo/Documents/ofSite/icons/application.png"
       inkscape:export-xdpi="101.73913"
       inkscape:export-ydpi="101.73913" />
    <circle
       style="fill:#ee398f;fill-opacity:0.94117647;stroke:#ee398f;stroke-width:1;stroke-linecap:butt;stroke-miterlimit:4;stroke-dasharray:none;stroke-opacity:0.94117647"
       id="path4286"
       cx="158.05583"
       cy="265.57648"
       r="1.7857143"
       inkscape:export-filename="/home/arturo/Documents/ofSite/icons/application.png"
       inkscape:export-xdpi="101.73913"
       inkscape:export-ydpi="101.73913" />
    <circle
       style="fill:#ee398f;fill-opacity:0.94117647;stroke:#ee398f;stroke-width:1;stroke-linecap:butt;stroke-miterlimit:4;stroke-dasharray:none;stroke-opacity:0.94117647"
       id="path4286-0"
       cx="164.12727"
       cy="265.57648"
       r="1.7857143"
       inkscape:export-filename="/home/arturo/Documents/ofSite/icons/application.png"
       inkscape:export-xdpi="101.73913"
       inkscape:export-ydpi="101.73913" />
    <circle
       style="fill:#ee398f;fill-opacity:0.94117647;stroke:#ee398f;stroke-width:1;stroke-linecap:butt;stroke-miterlimit:4;stroke-dasharray:none;stroke-opacity:0.94117647"
       id="path4286-1"
       cx="170.19868"
       cy="265.57648"
       r="1.7857143"
       inkscape:export-filename="/home/arturo/Documents/ofSite/icons/application.png"
       inkscape:export-xdpi="101.73913"
       inkscape:export-ydpi="101.73913" />
    <path
       style="fill:none;fill-rule:evenodd;stroke:#ee398f;stroke-width:1px;stroke-linecap:butt;stroke-linejoin:miter;stroke-opacity:0.94117647"
       d="m 154.12727,269.8622 66.78571,0 0,-0.35714"
       id="path4309"
       inkscape:connector-curvature="0"
       inkscape:export-filename="/home/arturo/Documents/ofSite/icons/application.png"
       inkscape:export-xdpi="101.73913"
       inkscape:export-ydpi="101.73913" />
    <rect
       style="fill:none;fill-opacity:1;stroke:#ee398f;stroke-width:1;stroke-linecap:butt;stroke-miterlimit:4;stroke-dasharray:none;stroke-opacity:0.94117647"
       id="rect4284-2"
       width="67.85714"
       height="45"
       x="240.91298"
       y="260.57648"
       inkscape:export-filename="/home/arturo/Documents/ofSite/icons/communication.png"
       inkscape:export-xdpi="101.73913"
       inkscape:export-ydpi="101.73913" />
    <rect
       style="fill:#ee398f;fill-opacity:0.94117647;stroke:#ee398f;stroke-width:1;stroke-linecap:butt;stroke-miterlimit:4;stroke-dasharray:none;stroke-opacity:0.94117647"
       id="rect4328"
       width="16.785715"
       height="10.357142"
       x="291.62729"
       y="278.43362"
       inkscape:export-filename="/home/arturo/Documents/ofSite/icons/communication.png"
       inkscape:export-xdpi="101.73913"
       inkscape:export-ydpi="101.73913" />
    <rect
       style="fill:#ee398f;fill-opacity:0.94117647;stroke:#ee398f;stroke-width:1;stroke-linecap:butt;stroke-miterlimit:4;stroke-dasharray:none;stroke-opacity:0.94117647"
       id="rect4330"
       width="8.9285717"
       height="8.9285717"
       x="253.77011"
       y="274.50507"
       inkscape:export-filename="/home/arturo/Documents/ofSite/icons/communication.png"
       inkscape:export-xdpi="101.73913"
       inkscape:export-ydpi="101.73913" />
    <rect
       style="fill:none;fill-opacity:1;stroke:#ee398f;stroke-width:1;stroke-linecap:butt;stroke-miterlimit:4;stroke-dasharray:none;stroke-opacity:0.94117647"
       id="rect4332"
       width="47.142857"
       height="2.5"
       x="256.62726"
       y="300.21936"
       inkscape:export-filename="/home/arturo/Documents/ofSite/icons/communication.png"
       inkscape:export-xdpi="101.73913"
       inkscape:export-ydpi="101.73913" />
    <rect
       style="fill:none;fill-opacity:1;stroke:#ee398f;stroke-width:1;stroke-linecap:butt;stroke-miterlimit:4;stroke-dasharray:none;stroke-opacity:0.94117647"
       id="rect4332-2"
       width="47.142857"
       height="2.5"
       x="256.27011"
       y="262.89792"
       inkscape:export-filename="/home/arturo/Documents/ofSite/icons/communication.png"
       inkscape:export-xdpi="101.73913"
       inkscape:export-ydpi="101.73913" />
    <rect
       style="fill:#ee398f;fill-opacity:0.94117647;stroke:#ee398f;stroke-width:1;stroke-linecap:butt;stroke-miterlimit:4;stroke-dasharray:none;stroke-opacity:0.94117647"
       id="rect4351"
       width="3.2142856"
       height="11.071428"
       x="268.41299"
       y="285.39792"
       inkscape:export-filename="/home/arturo/Documents/ofSite/icons/communication.png"
       inkscape:export-xdpi="101.73913"
       inkscape:export-ydpi="101.73913" />
    <rect
       style="fill:#ee398f;fill-opacity:0.94117647;stroke:#ee398f;stroke-width:1;stroke-linecap:butt;stroke-miterlimit:4;stroke-dasharray:none;stroke-opacity:0.94117647"
       id="rect4351-0"
       width="3.2142856"
       height="11.071428"
       x="275.37726"
       y="285.39792"
       inkscape:export-filename="/home/arturo/Documents/ofSite/icons/communication.png"
       inkscape:export-xdpi="101.73913"
       inkscape:export-ydpi="101.73913" />
    <rect
       style="fill:#ee398f;fill-opacity:0.94117647;stroke:#ee398f;stroke-width:1;stroke-linecap:butt;stroke-miterlimit:4;stroke-dasharray:none;stroke-opacity:0.94117647"
       id="rect4351-3"
       width="3.2142856"
       height="11.071428"
       x="282.52014"
       y="285.39792"
       inkscape:export-filename="/home/arturo/Documents/ofSite/icons/communication.png"
       inkscape:export-xdpi="101.73913"
       inkscape:export-ydpi="101.73913" />
    <rect
       style="fill:none;fill-opacity:1;stroke:#ee3987;stroke-width:1;stroke-linecap:butt;stroke-miterlimit:4;stroke-dasharray:none;stroke-opacity:1"
       id="rect4385"
       width="29.642857"
       height="44.642857"
       x="328.41299"
       y="260.21936"
       inkscape:export-filename="/home/arturo/Documents/ofSite/icons/events.png"
       inkscape:export-xdpi="102.53529"
       inkscape:export-ydpi="102.53529" />
    <path
       style="fill:none;fill-rule:evenodd;stroke:#ee3987;stroke-width:1px;stroke-linecap:butt;stroke-linejoin:miter;stroke-opacity:1"
       d="m 328.41298,267.71935 29.28572,0"
       id="path4387"
       inkscape:connector-curvature="0"
       inkscape:export-filename="/home/arturo/Documents/ofSite/icons/events.png"
       inkscape:export-xdpi="102.53529"
       inkscape:export-ydpi="102.53529" />
    <path
       style="fill:none;fill-rule:evenodd;stroke:#ee3987;stroke-width:1px;stroke-linecap:butt;stroke-linejoin:miter;stroke-opacity:1"
       d="m 328.05584,285.57649 29.28572,0"
       id="path4387-5"
       inkscape:connector-curvature="0"
       inkscape:export-filename="/home/arturo/Documents/ofSite/icons/events.png"
       inkscape:export-xdpi="102.53529"
       inkscape:export-ydpi="102.53529" />
    <path
       style="fill:none;fill-rule:evenodd;stroke:#ee3987;stroke-width:1px;stroke-linecap:butt;stroke-linejoin:miter;stroke-opacity:1;marker-end:url(#TriangleOutL)"
       d="m 390.91298,274.14791 c -13.57142,-13.57142 -30.71428,-11.42856 -42.14285,1.42858"
       id="path4422"
       inkscape:connector-curvature="0"
       sodipodi:nodetypes="cc"
       inkscape:export-filename="/home/arturo/Documents/ofSite/icons/events.png"
       inkscape:export-xdpi="102.53529"
       inkscape:export-ydpi="102.53529" />
    <path
       style="fill:#ee3987;fill-opacity:1;fill-rule:nonzero;stroke:none"
       id="path14"
       d="m 412.12434,284.90544 c 0.24448,0.89165 0.62829,1.694 1.1521,2.40704 0.52332,0.71332 1.19511,1.28635 2.01564,1.71978 0.81986,0.43314 1.79694,0.64912 2.93182,0.64912 1.1343,0 2.11138,-0.21598 2.93192,-0.64912 0.81986,-0.43343 1.49164,-1.00646 2.01554,-1.71978 0.52323,-0.71304 0.90704,-1.51539 1.15152,-2.40704 0.2443,-0.89176 0.36659,-1.79606 0.36659,-2.71302 0,-0.91695 -0.12229,-1.82058 -0.36659,-2.71233 -0.24448,-0.89176 -0.62829,-1.69401 -1.15152,-2.40763 -0.5239,-0.71283 -1.19568,-1.28587 -2.01554,-1.7192 -0.82054,-0.43323 -1.79762,-0.6499 -2.93192,-0.6499 -1.13488,0 -2.11196,0.21667 -2.93182,0.6499 -0.82053,0.43333 -1.49232,1.00637 -2.01564,1.7192 -0.52381,0.71362 -0.90762,1.51587 -1.1521,2.40763 -0.2444,0.89175 -0.366,1.79538 -0.366,2.71233 0,0.91696 0.1216,1.82126 0.366,2.71302 z m -2.28027,-6.29493 c 0.37465,-1.14499 0.93719,-2.15904 1.68642,-3.04117 0.74922,-0.88212 1.68213,-1.58669 2.79736,-2.11225 1.11533,-0.52575 2.41414,-0.78921 3.89605,-0.78921 1.48124,0 2.78014,0.26346 3.89548,0.78921 1.11522,0.52556 2.04813,1.23013 2.79736,2.11225 0.74922,0.88213 1.31176,1.89618 1.68632,3.04117 0.37466,1.14501 0.56253,2.3368 0.56253,3.57539 0,1.2385 -0.18787,2.43088 -0.56253,3.57569 -0.37456,1.14499 -0.9371,2.15914 -1.68632,3.04136 -0.74923,0.88212 -1.68214,1.58232 -2.79736,2.0996 -1.11534,0.51681 -2.41424,0.77598 -3.89548,0.77598 -1.48191,0 -2.78072,-0.25917 -3.89605,-0.77598 -1.11523,-0.51728 -2.04814,-1.21748 -2.79736,-2.0996 -0.74923,-0.88222 -1.31177,-1.89637 -1.68642,-3.04136 -0.37457,-1.14481 -0.56195,-2.33719 -0.56195,-3.57569 0,-1.23859 0.18738,-2.43038 0.56195,-3.57539"
       inkscape:connector-curvature="0"
       inkscape:export-xdpi="106.89746"
       inkscape:export-ydpi="106.89746"
       inkscape:export-filename="/home/arturo/Documents/ofSite/icons/gl.png" />
    <path
       style="fill:#ee3987;fill-opacity:1;fill-rule:nonzero;stroke:none"
       id="path16"
       d="m 437.82433,283.8156 c -0.14496,-0.51485 -0.36533,-0.97387 -0.66264,-1.37723 -0.29731,-0.40317 -0.67859,-0.72423 -1.14354,-0.96297 -0.46553,-0.23885 -1.01015,-0.35832 -1.63475,-0.35832 -0.65593,0 -1.21233,0.12726 -1.6692,0.38098 -0.45765,0.25393 -0.83085,0.58579 -1.12077,0.99616 -0.28993,0.41046 -0.49939,0.87736 -0.62888,1.40009 -0.12959,0.52254 -0.1941,1.05248 -0.1941,1.58951 0,0.56769 0.0681,1.1163 0.20577,1.64604 0.13688,0.53062 0.35423,0.99673 0.65165,1.4001 0.29711,0.40316 0.6816,0.72782 1.15443,0.97396 0.47293,0.24644 1.0447,0.36951 1.71532,0.36951 0.67061,0 1.23071,-0.12658 1.68018,-0.38041 0.44958,-0.25382 0.81199,-0.58986 1.08644,-1.00811 0.27396,-0.41766 0.47224,-0.89535 0.59443,-1.43297 0.12161,-0.53772 0.183,-1.08984 0.183,-1.65742 0,-0.53724 -0.0724,-1.06339 -0.21734,-1.57892 z m -6.97526,-4.11885 0,1.56977 0.0392,0 c 0.32067,-0.6427 0.82482,-1.11017 1.51266,-1.40185 0.68783,-0.29158 1.44378,-0.43741 2.26928,-0.43741 0.91627,0 1.71462,0.16432 2.39507,0.49326 0.67986,0.32883 1.24482,0.77296 1.69556,1.33276 0.45083,0.5604 0.79038,1.2062 1.02008,1.93781 0.22911,0.73191 0.34392,1.50848 0.34392,2.33 0,0.82151 -0.11111,1.59808 -0.33225,2.33017 -0.22172,0.73191 -0.55756,1.37052 -1.0084,1.91535 -0.45075,0.54492 -1.01639,0.97455 -1.69614,1.28782 -0.68054,0.31327 -1.47093,0.47039 -2.37241,0.47039 -0.29051,0 -0.61536,-0.0298 -0.97406,-0.0895 -0.35919,-0.0605 -0.7142,-0.15703 -1.06552,-0.29148 -0.35122,-0.13445 -0.68414,-0.31823 -0.99732,-0.54979 -0.31317,-0.23163 -0.57663,-0.51904 -0.79047,-0.86354 l -0.0392,0 0,5.98047 -1.96535,0 0,-16.01432 1.96535,0"
       inkscape:connector-curvature="0"
       inkscape:export-xdpi="106.89746"
       inkscape:export-ydpi="106.89746"
       inkscape:export-filename="/home/arturo/Documents/ofSite/icons/gl.png" />
    <path
       style="fill:#ee3987;fill-opacity:1;fill-rule:nonzero;stroke:none"
       id="path18"
       d="m 449.67215,283.10694 c -0.17531,-0.40209 -0.41193,-0.74893 -0.70914,-1.03934 -0.29791,-0.2904 -0.64912,-0.52148 -1.05326,-0.69309 -0.40473,-0.17162 -0.85118,-0.25743 -1.33949,-0.25743 -0.50356,0 -0.958,0.0858 -1.36214,0.25743 -0.40462,0.17161 -0.75166,0.40628 -1.04148,0.70389 -0.28993,0.29819 -0.51895,0.64513 -0.68668,1.03992 -0.16821,0.39491 -0.26715,0.81607 -0.2978,1.26321 l 6.79976,0 c -0.0308,-0.44714 -0.13397,-0.872 -0.30977,-1.27459 z m 0.47623,7.43321 c -0.88816,0.65651 -2.00524,0.98467 -3.35269,0.98467 -0.94945,0 -1.77301,-0.14924 -2.4694,-0.44753 -0.69709,-0.29878 -1.28286,-0.71713 -1.75764,-1.25484 -0.47467,-0.53772 -0.83085,-1.17964 -1.06794,-1.92673 -0.2371,-0.74669 -0.37097,-1.56101 -0.40171,-2.44186 0,-0.88086 0.13757,-1.6873 0.41397,-2.41959 0.27572,-0.73201 0.66263,-1.36692 1.16065,-1.90454 0.49804,-0.53772 1.08819,-0.95539 1.76999,-1.25425 0.68162,-0.29879 1.42909,-0.44822 2.24155,-0.44822 1.05754,0 1.93451,0.21355 2.63208,0.63968 0.69776,0.42661 1.25717,0.9691 1.67844,1.62746 0.42135,0.65884 0.71303,1.37713 0.87394,2.15476 0.16093,0.77832 0.22601,1.51889 0.19536,2.22219 l -8.88282,0 c -0.0153,0.50708 0.0454,0.98779 0.18301,1.44261 0.13756,0.45483 0.3587,0.85751 0.66448,1.20805 0.30588,0.35034 0.69523,0.62936 1.16933,0.83815 0.4734,0.20898 1.03107,0.31327 1.67288,0.31327 0.82473,0 1.50099,-0.1865 2.02791,-0.56049 0.52692,-0.37378 0.87443,-0.94195 1.04275,-1.70539 l 1.92837,0 c -0.26044,1.29862 -0.83454,2.27609 -1.72251,2.9326"
       inkscape:connector-curvature="0"
       inkscape:export-xdpi="106.89746"
       inkscape:export-ydpi="106.89746"
       inkscape:export-filename="/home/arturo/Documents/ofSite/icons/gl.png" />
    <path
       style="fill:#ee3987;fill-opacity:1;fill-rule:nonzero;stroke:none"
       id="path20"
       d="m 455.21482,279.69675 0,1.83926 0.0369,0 c 0.81422,-1.40544 2.10574,-2.10875 3.87387,-2.10875 0.78368,0 1.43697,0.10497 1.96029,0.31435 0.52255,0.20956 0.94517,0.50113 1.26817,0.87501 0.323,0.37379 0.54968,0.8185 0.68044,1.33453 0.13018,0.51612 0.19594,1.08808 0.19594,1.71628 l 0,7.62701 -1.96524,0 0,-7.84601 c 0,-0.71713 -0.21511,-1.2848 -0.64435,-1.70364 -0.42983,-0.41835 -1.01998,-0.62771 -1.77115,-0.62771 -0.59795,0 -1.11572,0.09 -1.55304,0.26939 -0.43721,0.17951 -0.80147,0.43323 -1.09256,0.76218 -0.2909,0.32883 -0.5096,0.71351 -0.65515,1.15394 -0.14613,0.44101 -0.2187,0.92289 -0.2187,1.44622 l 0,6.54563 -1.96525,0 0,-11.59769 1.84986,0"
       inkscape:connector-curvature="0"
       inkscape:export-xdpi="106.89746"
       inkscape:export-ydpi="106.89746"
       inkscape:export-filename="/home/arturo/Documents/ofSite/icons/gl.png" />
    <path
       style="fill:#ee3987;fill-opacity:1;fill-rule:nonzero;stroke:none"
       id="path22"
       d="m 476.81553,291.16845 c -0.88737,0.36542 -1.78351,0.54852 -2.68743,0.54852 -1.42723,0 -2.71019,-0.24322 -3.84994,-0.72802 -1.13994,-0.48538 -2.10087,-1.15385 -2.88395,-2.00602 -0.78299,-0.85147 -1.38306,-1.85238 -1.80074,-3.00225 -0.41746,-1.14966 -0.62634,-2.38943 -0.62634,-3.71802 0,-1.36214 0.20829,-2.6272 0.6246,-3.79428 0.4165,-1.1667 1.01511,-2.18435 1.79626,-3.05324 0.78132,-0.86899 1.74118,-1.55002 2.88024,-2.04454 1.13917,-0.49384 2.42222,-0.74105 3.84947,-0.74105 0.95674,0 1.88284,0.14097 2.77878,0.42252 0.89613,0.28195 1.70509,0.69591 2.42736,1.2421 0.72199,0.54609 1.31779,1.21933 1.7875,2.01925 0.46991,0.80049 0.7574,1.71861 0.8617,2.75553 l -3.91434,0 c -0.24382,-1.0195 -0.71372,-1.78459 -1.40964,-2.29468 -0.69639,-0.51009 -1.54008,-0.76508 -2.53136,-0.76508 -0.92241,0 -1.70539,0.17454 -2.34906,0.5238 -0.64357,0.34927 -1.16573,0.81802 -1.56607,1.40545 -0.40045,0.58811 -0.69153,1.25649 -0.87376,2.00601 -0.1832,0.74962 -0.27396,1.52423 -0.27396,2.32483 0,0.76694 0.0913,1.51217 0.27435,2.23591 0.1832,0.72364 0.47487,1.37529 0.87522,1.95445 0.40035,0.57896 0.92318,1.04284 1.56782,1.39212 0.64445,0.34926 1.4284,0.5239 2.35226,0.5239 1.35846,0 2.40733,-0.33477 3.1479,-1.00462 0.74066,-0.66954 1.17185,-1.64059 1.29395,-2.91265 l -4.12312,0 0,-2.99564 7.81788,0 0,9.8456 -2.60132,0 -0.41659,-2.06545 c -0.73075,0.91802 -1.5403,1.56013 -2.42767,1.92555"
       inkscape:connector-curvature="0"
       inkscape:export-xdpi="106.89746"
       inkscape:export-ydpi="106.89746"
       inkscape:export-filename="/home/arturo/Documents/ofSite/icons/gl.png" />
    <path
       style="fill:#ee3987;fill-opacity:1;fill-rule:nonzero;stroke:none"
       id="path24"
       d="m 488.90531,273.0904 0,14.8244 9.08207,0 0,3.37964 -13.16979,0 0,-18.20404 4.08772,0"
       inkscape:connector-curvature="0"
       inkscape:export-xdpi="106.89746"
       inkscape:export-ydpi="106.89746"
       inkscape:export-filename="/home/arturo/Documents/ofSite/icons/gl.png" />
    <path
       style="fill:#ee3987;fill-opacity:1;fill-rule:nonzero;stroke:none"
       id="path26"
       d="m 469.57378,293.55729 c -6.25425,3.71695 -15.62167,5.83262 -26.07319,5.83262 -18.83019,0 -34.0951,-7.66156 -34.0951,-17.11284 0,-9.45129 15.26491,-17.11303 34.0951,-17.11303 10.48995,0 19.89531,2.15487 26.14976,5.89505 -6.8268,-6.2667 -19.06718,-10.67012 -33.06257,-10.67217 -21.43463,-0.003 -38.81256,9.79463 -38.81442,21.88411 -0.002,12.08929 17.37279,21.89324 38.80751,21.89617 13.93974,0.002 26.14841,-4.387 32.99291,-10.60991"
       inkscape:connector-curvature="0"
       inkscape:export-xdpi="106.89746"
       inkscape:export-ydpi="106.89746"
       inkscape:export-filename="/home/arturo/Documents/ofSite/icons/gl.png" />
    <path
       style="fill:#ee3987;fill-opacity:1;fill-rule:nonzero;stroke:none"
       id="path28"
       d="m 501.3896,289.47658 0.19748,0 c 0.13038,0 0.2228,-0.0212 0.27729,-0.0636 0.0535,-0.0426 0.0798,-0.0973 0.0798,-0.16442 0,-0.067 -0.0253,-0.1219 -0.0768,-0.16431 -0.0516,-0.0425 -0.13913,-0.0638 -0.26268,-0.0638 l -0.21501,0 0,0.45609 z m -0.45338,-0.77354 0.81626,0 c 0.23058,0 0.39792,0.0465 0.50201,0.1397 0.10314,0.0932 0.15469,0.21803 0.15469,0.37457 0,0.12219 -0.0389,0.22804 -0.11771,0.31755 -0.0798,0.0895 -0.20431,0.1543 -0.37359,0.19448 0.07,0.0268 0.1216,0.0551 0.15371,0.0849 0.0467,0.0417 0.0953,0.1036 0.14594,0.18563 0.003,0.006 0.10118,0.18193 0.29478,0.5277 l -0.53703,0 c -0.17415,-0.34733 -0.2909,-0.55495 -0.35025,-0.62286 -0.0604,-0.0677 -0.11966,-0.1018 -0.17901,-0.1018 -0.0136,0 -0.0321,0.002 -0.0565,0.007 l 0,0.71781 -0.45337,0 0,-1.82457 z m 2.15108,0.91228 c 0,-0.38011 -0.13524,-0.70477 -0.40375,-0.97386 -0.2695,-0.26911 -0.59348,-0.40357 -0.97388,-0.40357 -0.3804,0 -0.70437,0.13446 -0.97387,0.40357 -0.26949,0.26909 -0.40375,0.59375 -0.40375,0.97386 0,0.38011 0.13426,0.70467 0.40375,0.97377 0.2695,0.269 0.59347,0.40356 0.97387,0.40356 0.3804,0 0.70438,-0.13456 0.97388,-0.40356 0.26851,-0.2691 0.40375,-0.59366 0.40375,-0.97377 z m 0.33078,0 c 0,0.30548 -0.0768,0.59025 -0.2296,0.85411 -0.15275,0.26384 -0.36095,0.47185 -0.6246,0.62382 -0.26366,0.15216 -0.54872,0.22814 -0.85421,0.22814 -0.30452,0 -0.58763,-0.076 -0.85225,-0.22814 -0.26365,-0.15197 -0.47186,-0.35998 -0.6246,-0.62382 -0.15274,-0.26386 -0.22961,-0.54863 -0.22961,-0.85411 0,-0.30412 0.0768,-0.58841 0.22961,-0.85314 0.15274,-0.26462 0.36095,-0.47282 0.6246,-0.62498 0.26462,-0.15196 0.54773,-0.22795 0.85225,-0.22795 0.30549,0 0.59055,0.076 0.85421,0.22795 0.26365,0.15216 0.47185,0.36036 0.6246,0.62498 0.15274,0.26473 0.2296,0.54902 0.2296,0.85314"
       inkscape:connector-curvature="0"
       inkscape:export-xdpi="106.89746"
       inkscape:export-ydpi="106.89746"
       inkscape:export-filename="/home/arturo/Documents/ofSite/icons/gl.png" />
    <rect
       style="fill:#ee3987;fill-opacity:1;stroke:#ee398f;stroke-width:1;stroke-linecap:butt;stroke-miterlimit:4;stroke-dasharray:none;stroke-opacity:0.94117647"
       id="rect4861"
       width="10.606602"
       height="11.616755"
       x="524.77423"
       y="264.44321"
       inkscape:export-xdpi="124.63731"
       inkscape:export-ydpi="124.63731"
       inkscape:export-filename="/home/arturo/Documents/ofSite/icons/graphics.png" />
    <path
       sodipodi:type="star"
       style="fill:#ee3987;fill-opacity:1;stroke:#ee398f;stroke-width:1;stroke-linecap:butt;stroke-miterlimit:4;stroke-dasharray:none;stroke-opacity:0.94117647"
       id="path4863"
       sodipodi:sides="3"
       sodipodi:cx="535.38085"
       sodipodi:cy="287.17163"
       sodipodi:r1="13.933149"
       sodipodi:r2="6.9665747"
       sodipodi:arg1="-0.81103357"
       sodipodi:arg2="0.23616398"
       inkscape:flatsided="true"
       inkscape:rounded="0"
       inkscape:randomized="0"
       d="m 544.97731,277.07011 -5.6465,23.46305 -17.49635,-16.62154 z"
       inkscape:transform-center-x="1.9749765"
       inkscape:transform-center-y="1.630003"
       inkscape:export-xdpi="124.63731"
       inkscape:export-ydpi="124.63731"
       inkscape:export-filename="/home/arturo/Documents/ofSite/icons/graphics.png" />
    <circle
       style="fill:#ee3987;fill-opacity:1;stroke:#ee398f;stroke-width:1;stroke-linecap:butt;stroke-miterlimit:4;stroke-dasharray:none;stroke-opacity:0.94117647"
       id="path4869"
       cx="555.07886"
       cy="275.5549"
       r="5.5558391"
       inkscape:export-xdpi="124.63731"
       inkscape:export-ydpi="124.63731"
       inkscape:export-filename="/home/arturo/Documents/ofSite/icons/graphics.png" />
    <path
       style="fill:#ffffff;fill-rule:evenodd;stroke:#ee398f;stroke-width:1;stroke-linecap:round;stroke-linejoin:round;stroke-miterlimit:4;stroke-dasharray:none;stroke-opacity:0.94117647"
       d="m 206.62983,334.28121 c -0.18834,-0.005 -0.37547,0.0235 -0.54981,0.0916 L 193.57715,346.272 c -0.91031,1.03475 -1.2355,1.85222 -1.1697,2.37714 0.12239,0.97637 1.59152,0.93991 3.12639,-0.60102 l 12.63762,-12.00158 c 0.34675,-0.67363 -0.2383,-1.39038 -0.98373,-1.65752 -0.18045,-0.0647 -0.36956,-0.10261 -0.5579,-0.10781 z m -17.31913,17.12778 c -0.34623,-8.7e-4 -0.77301,0.0463 -1.26673,0.11589 l -1.28468,1.10726 c 0.13986,0.633 1.02288,1.89341 1.8911,1.89246 l 1.29907,-1.14006 c 0.71993,-1.54 0.39993,-1.97303 -0.63876,-1.97555 z"
       id="path2225"
       sodipodi:nodetypes="cccsccsccccccc"
       inkscape:connector-curvature="0"
       inkscape:export-filename="/home/arturo/Documents/ofSite/icons/utils.png"
       inkscape:export-xdpi="99.596718"
       inkscape:export-ydpi="99.596718" />
    <path
       style="opacity:1;fill:#ffffff;fill-rule:evenodd;stroke:#ee398f;stroke-width:1;stroke-linecap:round;stroke-linejoin:round;stroke-miterlimit:4;stroke-dasharray:none;stroke-opacity:0.94117647"
       d="m 187.11102,354.46403 -22.44433,21.13051 -0.82113,1.64227 0.26144,0.44736 0.35563,0.15643 1.79159,-0.76802 22.22235,-21.16199 c 0.11448,-0.18053 -1.13451,-1.71711 -1.36555,-1.44656 z"
       id="path4189"
       sodipodi:nodetypes="cccccccc"
       inkscape:connector-curvature="0"
       inkscape:export-filename="/home/arturo/Documents/ofSite/icons/utils.png"
       inkscape:export-xdpi="99.596718"
       inkscape:export-ydpi="99.596718" />
    <path
       style="fill:#ffffff;fill-rule:evenodd;stroke:#ee398f;stroke-width:0.12936793;stroke-linecap:round;stroke-linejoin:round;stroke-miterlimit:4;stroke-dasharray:none;stroke-opacity:0.94117647"
       d="m 167.07772,375.40302 -0.49926,0.19918 -1.06231,1.0623 -0.99857,0.84985 0.0979,0.10858 1.41056,-0.70347 1.08355,-0.97732 -0.46741,0.0637 0.43552,-0.60285 z"
       id="path5168"
       sodipodi:nodetypes="ccccccccc"
       inkscape:connector-curvature="0"
       inkscape:export-filename="/home/arturo/Documents/ofSite/icons/utils.png"
       inkscape:export-xdpi="99.596718"
       inkscape:export-ydpi="99.596718" />
    <path
       style="fill:#ffffff;fill-rule:evenodd;stroke:#ee398f;stroke-width:0.12936793;stroke-linecap:round;stroke-linejoin:round;stroke-miterlimit:4;stroke-dasharray:none;stroke-opacity:0.94117647"
       d="m 166.60899,376.01384 -0.43421,0.0345 0.42492,-0.42493 0.48334,-0.19386 -0.47405,0.58426 z"
       id="path5175"
       sodipodi:nodetypes="ccccc"
       inkscape:connector-curvature="0"
       inkscape:export-filename="/home/arturo/Documents/ofSite/icons/utils.png"
       inkscape:export-xdpi="99.596718"
       inkscape:export-ydpi="99.596718" />
    <path
       style="fill:#ffffff;fill-rule:evenodd;stroke:#ee398f;stroke-width:0.12936793;stroke-linecap:round;stroke-linejoin:round;stroke-miterlimit:4;stroke-dasharray:none;stroke-opacity:0.94117647"
       d="m 166.3952,374.686 -0.26291,0.49127 -1.12604,0.99857 -0.80736,1.06231 -0.19121,-0.0637 0.76486,-1.50847 1.25352,-1.16854 -0.21246,0.53115 0.5816,-0.34255 z"
       id="path5160"
       sodipodi:nodetypes="ccccccccc"
       inkscape:connector-curvature="0"
       inkscape:export-filename="/home/arturo/Documents/ofSite/icons/utils.png"
       inkscape:export-xdpi="99.596718"
       inkscape:export-ydpi="99.596718" />
    <path
       style="fill:#ffffff;fill-rule:evenodd;stroke:#ee398f;stroke-width:0.12936793;stroke-linecap:round;stroke-linejoin:round;stroke-miterlimit:4;stroke-dasharray:none;stroke-opacity:0.94117647"
       d="m 165.79235,375.0498 0.0425,0.38243 0.33994,-0.2762 0.18855,-0.45941 -0.57098,0.35318 z"
       id="path5166"
       sodipodi:nodetypes="ccccc"
       inkscape:connector-curvature="0"
       inkscape:export-filename="/home/arturo/Documents/ofSite/icons/utils.png"
       inkscape:export-xdpi="99.596718"
       inkscape:export-ydpi="99.596718" />
    <path
       style="fill:none;stroke:#ee398f;stroke-width:1;stroke-miterlimit:4;stroke-dasharray:none;stroke-opacity:0.94117647"
       inkscape:connector-curvature="0"
       d="m 203.95103,366.94584 c 2.26858,2.21805 4.51542,4.45829 6.78989,6.6705 -0.30291,1.13334 -0.76713,2.29159 -1.69904,3.05561 -0.77924,0.67262 -1.77686,0.99782 -2.75864,1.24232 -2.22123,-2.30776 -4.45373,-4.60391 -6.67621,-6.91051 6.67621,6.91051 -25.88391,-26.74233 -4.46009,-4.61568 -7.15269,-7.36424 -14.28143,-14.75223 -21.42382,-22.12665 -1.60171,1.68643 -3.19718,3.37933 -4.82174,5.04376 -1.98405,-2.02403 -3.98747,-4.02895 -5.98158,-6.04301 3.75868,-3.76242 7.5594,-7.4826 11.3388,-11.2242 3.26749,0.88954 6.53078,1.79472 9.80135,2.67363 -2.23493,2.02903 -4.50681,4.01688 -6.74956,6.03719 7.45247,7.3062 14.86807,14.65099 22.33249,21.94548 -22.33249,-21.94548 11.09804,10.92206 4.30815,4.25156 z"
       id="path4977"
       sodipodi:nodetypes="cccccccccccccc"
       inkscape:export-filename="/home/arturo/Documents/ofSite/icons/utils.png"
       inkscape:export-xdpi="99.596718"
       inkscape:export-ydpi="99.596718" />
    <g
       id="g3195"
       style="stroke:#ee398f;stroke-width:6.4000001;stroke-miterlimit:4;stroke-dasharray:none;stroke-opacity:0.94117647"
       transform="matrix(0.08624529,0,0,0.08624529,154.40553,309.63795)"
       inkscape:export-filename="/home/arturo/Documents/ofSite/icons/utils.png"
       inkscape:export-xdpi="99.596718"
       inkscape:export-ydpi="99.596718">
      <path
         inkscape:connector-curvature="0"
         style="fill:#ffffff;fill-rule:evenodd;stroke:#ee398f;stroke-width:11.59483624;stroke-linecap:round;stroke-linejoin:round;stroke-miterlimit:4;stroke-dasharray:none;stroke-opacity:0.94117647"
         d="m 372.46444,526.62946 -12.39584,-19.94114 -2.1558,-14.55164 12.93479,-10.24005 c 29.38489,-5.58462 52.16636,-24.97639 65.75187,-63.59607 L 578.8822,283.02418 c 37.97177,-16.8228 71.36417,33.36504 65.21287,59.28447 L 503.42923,479.20189 c -46.22625,16.53863 -66.36973,39.16323 -69.52452,65.75187 l -12.39584,11.31794 -15.62954,-0.53895 -19.4022,-13.47374 -14.01269,-15.62955 z"
         id="path3197"
         sodipodi:nodetypes="ccccccccccccc" />
      <path
         inkscape:connector-curvature="0"
         style="opacity:1;fill:#ffffff;fill-rule:evenodd;stroke:#ee398f;stroke-width:6.4000001;stroke-linecap:round;stroke-linejoin:round;stroke-miterlimit:4;stroke-dasharray:none;stroke-opacity:0.94117647"
         d="m 379.21479,519.75102 -260.23831,245.00484 -9.52091,19.04183 3.03141,5.18708 4.12339,1.81374 20.77321,-8.905 257.66451,-245.36985 c 1.32736,-2.09325 -13.15439,-19.90964 -15.8333,-16.77264 z"
         id="path3201"
         sodipodi:nodetypes="cccccccc" />
      <path
         inkscape:connector-curvature="0"
         style="fill:#ffffff;fill-rule:evenodd;stroke:#ee398f;stroke-width:6.4000001;stroke-linecap:round;stroke-linejoin:round;stroke-miterlimit:4;stroke-dasharray:none;stroke-opacity:0.94117647"
         d="m 146.93194,762.53524 -5.78882,2.30939 -12.31727,12.31727 -11.57823,9.85381 1.13527,1.25904 16.35525,-8.15671 12.56361,-11.33188 -5.41959,0.73904 5.04978,-6.98996 z"
         id="path3203"
         sodipodi:nodetypes="ccccccccc" />
      <path
         inkscape:connector-curvature="0"
         style="fill:#ffffff;fill-rule:evenodd;stroke:#ee398f;stroke-width:6.4000001;stroke-linecap:round;stroke-linejoin:round;stroke-miterlimit:4;stroke-dasharray:none;stroke-opacity:0.94117647"
         d="m 141.49717,769.6176 -5.03461,0.40029 4.9269,-4.92691 5.60417,-2.24779 -5.49646,6.77441 z"
         id="path3205"
         sodipodi:nodetypes="ccccc" />
    </g>
    <polygon
       id="polygon1"
       points="22.235,28.606 6,28.606 6,47.699 21.989,47.699 39.389,62.75 39.389,13.769 39.389,13.769 "
       style="fill:#ee398f;fill-opacity:0.94117647;stroke:#ee3987;stroke-width:1.49674022;stroke-linejoin:round;stroke-miterlimit:4;stroke-dasharray:none;stroke-opacity:1"
       transform="matrix(0.66811859,0,0,0.66811859,71.795917,327.34305)"
       inkscape:export-filename="/home/arturo/Documents/ofSite/icons/sound.png"
       inkscape:export-xdpi="139.2724"
       inkscape:export-ydpi="139.2724" />
    <path
       inkscape:connector-curvature="0"
       id="path1"
       d="m 103.95113,360.1009 c 1.2888,-2.06849 2.04578,-4.50245 2.04578,-7.11746 0,-2.65778 -0.77769,-5.12714 -2.10257,-7.21568"
       style="fill:none;stroke:#ee3987;stroke-width:1;stroke-linecap:round;stroke-miterlimit:4;stroke-dasharray:none;stroke-opacity:1"
       inkscape:export-filename="/home/arturo/Documents/ofSite/icons/sound.png"
       inkscape:export-xdpi="139.2724"
       inkscape:export-ydpi="139.2724" />
    <path
       inkscape:connector-curvature="0"
       id="path2"
       d="m 108.59723,341.0642 c 2.46869,3.33124 3.93121,7.4542 3.93121,11.91924 0,4.42361 -1.43713,8.51049 -3.86707,11.82503"
       style="fill:none;stroke:#ee3987;stroke-width:1;stroke-linecap:round;stroke-miterlimit:4;stroke-dasharray:none;stroke-opacity:1"
       inkscape:export-filename="/home/arturo/Documents/ofSite/icons/sound.png"
       inkscape:export-xdpi="139.2724"
       inkscape:export-ydpi="139.2724" />
    <path
       inkscape:connector-curvature="0"
       id="path5006"
       d="m 113.02552,369.17462 c 3.51898,-4.45368 5.62422,-10.07523 5.62422,-16.19051 0,-6.15805 -2.13264,-11.81368 -5.6917,-16.28072"
       style="fill:none;stroke:#ee3987;stroke-width:1;stroke-linecap:round;stroke-miterlimit:4;stroke-dasharray:none;stroke-opacity:1"
       inkscape:export-filename="/home/arturo/Documents/ofSite/icons/sound.png"
       inkscape:export-xdpi="139.2724"
       inkscape:export-ydpi="139.2724" />
    <path
       inkscape:connector-curvature="0"
       d="m 274.17865,377.11805 c -0.1904,-0.0139 -0.95371,-0.0583 -1.69625,-0.0986 -1.55208,-0.0843 -3.79859,-0.30512 -4.52337,-0.44464 -0.80074,-0.15414 -4.82617,-1.30608 -7.14267,-2.04399 -0.34271,-0.10917 -0.93467,-0.29355 -1.31546,-0.40973 -0.68748,-0.20975 -4.24988,-1.32954 -5.64262,-1.77367 -5.54137,-1.76709 -6.3025,-2.01659 -6.376,-2.09009 -0.0477,-0.0477 -0.0438,-0.22297 0.012,-0.54353 0.15442,-0.88669 -0.0424,-2.75122 -0.54043,-5.12037 -0.13609,-0.64735 -0.26177,-1.27825 -0.27928,-1.402 l -0.0318,-0.22502 0.31225,0 c 1.54108,0 7.27409,1.53605 14.8999,3.99214 1.72615,0.55595 2.77785,0.81727 5.08875,1.2644 4.21825,0.81617 6.79341,1.07669 10.62751,1.07514 3.44144,-10e-4 4.60666,-0.13348 7.35086,-0.83335 1.73119,-0.44151 2.29088,-0.61361 3.33591,-1.02573 0.91157,-0.3595 0.89999,-0.25381 -0.0216,0.19751 -1.3292,0.65089 -3.45638,1.24567 -5.47252,1.53017 -0.45695,0.0645 -0.87586,0.14139 -0.93092,0.17092 -0.30739,0.16487 1.88178,0.16059 3.21567,-0.006 2.82383,-0.35326 4.91729,-1.38058 6.12769,-3.00705 0.47658,-0.6404 0.97014,-1.72801 0.96728,-2.13153 -0.002,-0.21159 -0.0125,-0.20217 -0.22625,0.19296 -0.12358,0.22848 -0.32169,0.55561 -0.44023,0.72696 -0.22407,0.32388 -1.42982,1.52317 -1.53138,1.52317 -0.0319,0 -0.36942,-0.30377 -0.75007,-0.67504 -2.15327,-2.1002 -5.98421,-4.00724 -10.8628,-5.40749 -2.61064,-0.74931 -4.9418,-1.23641 -8.65433,-1.80835 -10.01842,-1.54339 -17.15396,-4.66465 -19.87773,-8.69501 -0.23006,-0.34041 -0.56623,-0.83451 -0.74706,-1.098 -0.39263,-0.57212 -0.7267,-1.22581 -0.94048,-1.84028 -0.2173,-0.62458 -0.27258,-1.86087 -0.11146,-2.49245 0.36225,-1.41996 1.38314,-2.70946 3.09978,-3.9154 l 0.53182,-0.37361 -0.33165,-0.65142 c -0.55722,-1.09445 -0.83373,-2.47552 -0.69353,-3.46402 0.34991,-2.46716 2.35482,-4.99709 5.34527,-6.74501 2.87904,-1.68281 6.79822,-2.77087 11.648,-3.23377 3.52969,-0.3369 9.36116,-0.30669 14.4008,0.0746 6.48807,0.49087 11.52208,1.55819 14.33157,3.0386 0.38079,0.20065 0.94593,0.4785 1.25586,0.61744 1.94321,0.87113 4.11881,2.43121 5.29305,3.79553 0.61379,0.71316 1.2461,1.70896 1.59649,2.51429 l 0.30123,0.69234 -0.006,1.10776 c -0.005,0.90031 -0.033,1.20726 -0.15163,1.63916 -0.20685,0.75279 -0.52579,1.48726 -0.94991,2.18747 l -0.36606,0.60438 0.56538,0.55388 c 0.62956,0.61675 1.00673,1.14709 1.27108,1.78726 0.2351,0.56935 0.296,1.66629 0.12953,2.33307 -0.71188,2.85132 -4.81754,6.25989 -9.74166,8.08766 -1.73248,0.64308 -3.44412,1.1266 -5.55816,1.57012 -0.60422,0.12676 -1.12857,0.26047 -1.16523,0.29713 -0.0427,0.0427 0.25236,0.27764 0.82163,0.65412 1.03633,0.68537 1.34869,0.97913 1.85269,1.74238 1.05139,1.5922 1.36722,3.26908 0.92047,4.88715 -0.26021,0.94245 -0.32041,1.50758 -0.39768,3.73321 -0.071,2.04614 -0.13906,2.69608 -0.34472,3.29383 -0.28868,0.83906 -0.67304,1.37494 -1.83481,2.55808 -1.59648,1.62585 -4.43296,2.56305 -9.13897,3.01959 -0.73811,0.0716 -5.80871,0.14406 -6.50806,0.093 z m 13.32767,-20.67281 c -0.52582,-0.44651 -3.51305,-1.68817 -6.81962,-2.83461 -0.76158,-0.26405 -1.44886,-0.50686 -1.52728,-0.53956 -0.43674,-0.18213 -2.87822,-0.89382 -4.17332,-1.21654 -2.77127,-0.69054 -6.20298,-1.42339 -7.93862,-1.69531 -5.13853,-0.80503 -10.87473,-2.85593 -15.70222,-5.6141 -0.67771,-0.3872 -1.24878,-0.68741 -1.26907,-0.66713 -0.14817,0.14817 1.05138,1.22226 2.25893,2.02267 4.0133,2.66017 10.11922,4.60193 18.72797,5.95573 1.90865,0.30015 4.98471,0.95816 7.81653,1.67205 1.80217,0.45432 3.52364,1.05456 7.72665,2.6941 0.51406,0.20053 0.96582,0.36574 1.0039,0.36714 0.0381,0.001 -0.009,-0.0636 -0.10385,-0.14444 z m 0.49299,-2.61394 c 0.69469,-0.0919 1.24619,-0.21211 1.75796,-0.38333 4.49791,-1.50488 7.94814,-3.82498 9.79467,-6.5864 0.47527,-0.71076 0.60457,-0.96971 0.52428,-1.05 -0.0239,-0.0239 -0.45513,0.36422 -0.9583,0.86248 -1.09663,1.08593 -1.33132,1.29596 -2.23006,1.99565 -2.56472,1.99669 -5.38423,3.3884 -8.41226,4.15229 -1.507,0.38017 -3.43194,0.65928 -4.54689,0.65928 -0.88252,0 -0.37544,0.18371 0.94669,0.34297 1.4087,0.1697 1.88565,0.17078 3.12391,0.007 z m -5.96253,-4.57507 c 4.8592,-0.21692 8.44624,-0.84203 12.53147,-2.18386 2.22825,-0.73189 3.4083,-1.2004 4.63526,-1.84035 2.59245,-1.35213 4.21705,-2.99285 4.68574,-4.73225 0.18486,-0.68608 0.0823,-0.79688 -0.17902,-0.19349 -0.97555,2.25205 -3.75318,4.15294 -8.27115,5.6604 -2.87753,0.96011 -7.31512,1.69936 -12.32916,2.05388 -2.62913,0.18589 -7.42716,0.0684 -10.26517,-0.25149 -8.83628,-0.99582 -16.54231,-3.7043 -19.92546,-7.00331 -0.69229,-0.67507 -1.07027,-1.18452 -1.42025,-1.9142 -0.52179,-1.08788 -0.60512,-2.21917 -0.25218,-3.42323 0.0921,-0.31415 0.1551,-0.57118 0.14002,-0.57118 -0.0151,0 -0.10335,0.16357 -0.19615,0.36348 -0.56528,1.21766 -0.47661,2.70699 0.2411,4.04989 1.10982,2.07657 4.04593,4.30886 7.98491,6.07082 1.64027,0.73371 2.78837,1.13211 5.17291,1.79503 4.00593,1.11368 8.09723,1.8083 12.08914,2.05251 2.22748,0.13627 3.46544,0.15183 5.35799,0.0674 z m 11.81896,-4.79277 c 0.27153,-0.29697 0.36634,-0.58025 0.36634,-1.09463 0,-0.42159 -0.0321,-0.55591 -0.21467,-0.89846 -0.54629,-1.02493 -1.87703,-1.9391 -3.71916,-2.5549 -1.77803,-0.59437 -3.63627,-0.85826 -6.07058,-0.8621 -1.74916,-0.003 -2.10075,0.0282 -3.56558,0.31397 -2.65379,0.51772 -4.40305,1.72069 -4.54828,3.12788 -0.0413,0.40033 0.14888,0.96733 0.40102,1.19552 0.19823,0.17939 0.22862,0.0784 0.0963,-0.31992 -0.36371,-1.09503 0.50711,-2.03831 2.54566,-2.75748 1.27189,-0.4487 2.5568,-0.66356 4.61107,-0.77105 4.07508,-0.21323 7.31351,0.59074 9.37848,2.32829 0.92828,0.7811 1.03058,1.29493 0.47717,2.39673 -0.057,0.11358 0.10819,0.0427 0.24223,-0.10385 z m -22.24779,-3.60021 c 0.11729,-0.43767 -0.0819,-1.17686 -0.42803,-1.58818 -0.42854,-0.50929 -1.72407,-1.18544 -2.95864,-1.54414 -1.99943,-0.58092 -4.75914,-0.66831 -7.33303,-0.23218 -1.71666,0.29087 -3.3453,1.02198 -4.01221,1.80111 -0.27676,0.32333 -0.46106,0.83104 -0.40608,1.11865 0.0488,0.25537 0.11547,0.23216 0.26116,-0.0909 0.31902,-0.70747 1.4141,-1.41399 2.73517,-1.76467 1.22489,-0.32515 2.03581,-0.41101 3.91175,-0.41419 1.83541,-0.003 2.56819,0.0603 4.07886,0.35268 2.39383,0.46337 3.62266,1.17459 3.92569,2.27209 0.0776,0.28107 0.16479,0.31579 0.22536,0.0898 z m 16.61132,-4.36178 c -0.49787,-0.5091 -0.66955,-0.86648 -0.62733,-1.3059 0.0285,-0.29626 0.0787,-0.39426 0.33739,-0.65886 0.57343,-0.58641 1.6183,-0.96465 3.45413,-1.25036 1.129,-0.17572 3.68153,-0.17479 4.7334,0.002 1.41853,0.23803 2.32118,0.52038 3.32693,1.04068 0.8243,0.42644 1.58885,1.10129 1.73322,1.52989 0.14261,0.42341 0.24547,0.38901 0.24547,-0.0821 0,-0.32973 -0.0379,-0.4674 -0.19841,-0.72048 -0.63273,-0.99772 -2.75314,-1.96561 -5.06342,-2.31129 -2.28451,-0.34181 -4.64845,-0.23321 -6.78224,0.31159 -1.54378,0.39417 -2.70291,1.2625 -2.70291,2.02483 0,0.56632 0.5122,1.15531 1.41931,1.6321 0.45876,0.24113 0.49953,0.17174 0.12446,-0.2118 z m -31.50714,-3.07246 c -0.66136,-0.55447 -0.67507,-1.16149 -0.0427,-1.88934 1.03882,-1.19561 5.57609,-1.89883 9.19266,-1.42474 2.40834,0.3157 3.83933,0.9646 4.37971,1.98601 0.13225,0.24997 0.17014,0.96769 0.0715,1.35421 -0.0812,0.31824 0.0327,0.28618 0.34704,-0.0977 0.23771,-0.29027 0.26404,-0.36184 0.26209,-0.71237 -0.008,-1.39559 -2.02974,-2.49754 -5.28036,-2.87778 -1.02639,-0.12007 -3.72816,-0.13798 -4.80108,-0.0318 -1.91079,0.18904 -3.40175,0.69903 -4.38073,1.49846 -0.81426,0.66492 -1.06873,1.31396 -0.73003,1.86198 0.16337,0.26434 0.75009,0.58492 1.06679,0.58289 l 0.21142,-0.001 -0.29633,-0.24844 z m 30.15649,-1.66732 c 0.35369,-0.16726 0.92217,-0.71457 1.06206,-1.02253 0.16337,-0.35962 0.16144,-0.89375 -0.005,-1.25933 -0.65831,-1.4499 -3.88712,-2.37515 -8.3818,-2.4019 -2.3191,-0.0138 -3.63091,0.20619 -4.88104,0.81853 -1.35957,0.66596 -1.90332,1.50893 -1.49262,2.31397 0.24505,0.48034 0.97023,0.97078 1.74699,1.18149 0.46585,0.12637 0.52682,0.0659 0.18273,-0.18119 -0.51762,-0.37173 -1.06761,-0.97461 -1.1549,-1.26598 -0.1752,-0.58474 0.28431,-1.12869 1.40225,-1.65997 0.71322,-0.33894 1.59869,-0.61778 2.22201,-0.69972 0.89261,-0.11735 3.34358,-0.15896 4.36318,-0.0741 2.3571,0.19621 4.07682,0.69256 4.92686,1.42201 0.37848,0.32478 0.64652,0.86451 0.64652,1.3018 0,0.43846 -0.19166,0.8039 -0.60481,1.15316 -0.18141,0.15337 -0.40774,0.34458 -0.50294,0.42493 l -0.17309,0.14607 0.20771,-0.0448 c 0.11423,-0.0246 0.31018,-0.0932 0.43544,-0.15247 z"
       id="path2382"
       style="fill:#ee3987;fill-opacity:1"
       inkscape:export-xdpi="91.52668"
       inkscape:export-ydpi="91.52668"
       inkscape:export-filename="/home/arturo/Documents/ofSite/icons/video.png" />
    <circle
       style="fill:#ee3987;fill-opacity:1;stroke:#ee3987;stroke-width:1;stroke-linecap:butt;stroke-miterlimit:4;stroke-dasharray:none;stroke-opacity:1"
       id="path5061-4"
       cx="186.85074"
       cy="471.39633"
       r="9.0913725"
       inkscape:export-filename="/home/arturo/Documents/ofSite/icons/class.png"
       inkscape:export-xdpi="91.970001"
       inkscape:export-ydpi="91.970001" />
    <text
       xml:space="preserve"
       style="font-style:normal;font-weight:normal;font-size:12.5px;line-height:125%;font-family:sans-serif;letter-spacing:0px;word-spacing:0px;fill:#ffffff;fill-opacity:1;stroke:none;stroke-width:1px;stroke-linecap:butt;stroke-linejoin:miter;stroke-opacity:1"
       x="182.47452"
       y="475.9465"
       id="text5057-8"
       sodipodi:linespacing="125%"
       inkscape:export-filename="/home/arturo/Documents/ofSite/icons/class.png"
       inkscape:export-xdpi="91.970001"
       inkscape:export-ydpi="91.970001"><tspan
         sodipodi:role="line"
         id="tspan5059-9"
         x="182.47452"
         y="475.9465">C</tspan></text>
    <rect
       style="fill:#ee3987;fill-opacity:1;stroke:none;stroke-width:1;stroke-linecap:butt;stroke-miterlimit:4;stroke-dasharray:none;stroke-opacity:1"
       id="rect5084"
       width="15.657365"
       height="15.657365"
       x="202.22963"
       y="463.56155"
       inkscape:export-filename="/home/arturo/Documents/ofSite/icons/functions.png"
       inkscape:export-xdpi="91.970001"
       inkscape:export-ydpi="91.970001" />
    <text
       xml:space="preserve"
       style="font-style:normal;font-weight:normal;font-size:12.5px;line-height:125%;font-family:sans-serif;letter-spacing:0px;word-spacing:0px;fill:#ffffff;fill-opacity:1;stroke:none;stroke-width:1px;stroke-linecap:butt;stroke-linejoin:miter;stroke-opacity:1"
       x="206.2131"
       y="475.9465"
       id="text5057-8-9"
       sodipodi:linespacing="125%"
       inkscape:export-filename="/home/arturo/Documents/ofSite/icons/functions.png"
       inkscape:export-xdpi="91.970001"
       inkscape:export-ydpi="91.970001"><tspan
         sodipodi:role="line"
         id="tspan5059-9-5"
         x="206.2131"
         y="475.9465">F</tspan></text>
    <path
       style="fill:none;fill-rule:evenodd;stroke:#ee3987;stroke-width:1px;stroke-linecap:butt;stroke-linejoin:miter;stroke-opacity:1"
       d="m 582.85801,283.63612 c 0,0 13.13138,-42.47364 32.82996,0.50508 22.22335,48.48732 36.87057,-2.02031 36.87057,-2.02031 l 0,0"
       id="path5104"
       inkscape:connector-curvature="0"
       sodipodi:nodetypes="cscc"
       inkscape:export-filename="/home/arturo/Documents/ofSite/icons/math.png"
       inkscape:export-xdpi="113.4079"
       inkscape:export-ydpi="113.4079" />
  </g>
</svg>
